<?xml version="1.0" encoding="UTF-8" standalone="no"?>
<!DOCTYPE svg PUBLIC "-//W3C//DTD SVG 1.1//EN"
 "http://www.w3.org/Graphics/SVG/1.1/DTD/svg11.dtd">
<!-- Generated by graphviz version 5.0.0 (20220707.1540)
 -->
<!-- Title: dependencies Pages: 1 -->
<svg width="2426pt" height="247pt"
 viewBox="0.00 0.00 2426.00 246.80" xmlns="http://www.w3.org/2000/svg" xmlns:xlink="http://www.w3.org/1999/xlink">
<g id="graph0" class="graph" transform="scale(1 1) rotate(0) translate(4 242.8)">
<title>dependencies</title>
<polygon fill="white" stroke="transparent" points="-4,4 -4,-242.8 2422,-242.8 2422,4 -4,4"/>
<text text-anchor="middle" x="1209" y="-8.2" font-family="sans-serif" font-size="14.00">dependencies</text>
<g id="clust1" class="cluster">
<title>cluster_AppModule</title>
<polygon fill="none" stroke="black" stroke-dasharray="1,5" points="8,-32.8 8,-230.8 2410,-230.8 2410,-32.8 8,-32.8"/>
</g>
<g id="clust18" class="cluster">
<title>cluster_AppModule_bootstrap</title>
<polygon fill="none" stroke="black" points="1164,-170.8 1164,-222.8 1288,-222.8 1288,-170.8 1164,-170.8"/>
</g>
<g id="clust19" class="cluster">
<title>cluster_AppModule_providers</title>
<polygon fill="none" stroke="black" points="2190,-40.8 2190,-92.8 2402,-92.8 2402,-40.8 2190,-40.8"/>
</g>
<g id="clust16" class="cluster">
<title>cluster_AppModule_imports</title>
<polygon fill="none" stroke="black" points="2038,-40.8 2038,-92.8 2182,-92.8 2182,-40.8 2038,-40.8"/>
</g>
<g id="clust2" class="cluster">
<title>cluster_AppModule_declarations</title>
<polygon fill="none" stroke="black" points="16,-40.8 16,-92.8 2030,-92.8 2030,-40.8 16,-40.8"/>
</g>
<!-- AppComponent -->
<g id="node1" class="node">
<title>AppComponent</title>
<polygon fill="#ffffb3" stroke="black" points="2021.94,-84.8 1916.06,-84.8 1916.06,-48.8 2021.94,-48.8 2021.94,-84.8"/>
<text text-anchor="middle" x="1969" y="-62.6" font-family="Times,serif" font-size="14.00">AppComponent</text>
</g>
<!-- AppModule -->
<g id="node14" class="node">
<title>AppModule</title>
<polygon fill="#8dd3c7" stroke="black" points="1267.66,-149.8 1264.66,-153.8 1243.66,-153.8 1240.66,-149.8 1184.34,-149.8 1184.34,-113.8 1267.66,-113.8 1267.66,-149.8"/>
<text text-anchor="middle" x="1226" y="-127.6" font-family="Times,serif" font-size="14.00">AppModule</text>
</g>
<!-- AppComponent&#45;&gt;AppModule -->
<g id="edge1" class="edge">
<title>AppComponent&#45;&gt;AppModule</title>
<path fill="none" stroke="black" d="M1969,-84.83C1969,-105.57 1969,-136.8 1969,-136.8 1969,-136.8 1277.81,-136.8 1277.81,-136.8"/>
<polygon fill="black" stroke="black" points="1277.81,-133.3 1267.81,-136.8 1277.81,-140.3 1277.81,-133.3"/>
</g>
<!-- CommentComponent -->
<g id="node2" class="node">
<title>CommentComponent</title>
<polygon fill="#ffffb3" stroke="black" points="1898.05,-84.8 1761.95,-84.8 1761.95,-48.8 1898.05,-48.8 1898.05,-84.8"/>
<text text-anchor="middle" x="1830" y="-62.6" font-family="Times,serif" font-size="14.00">CommentComponent</text>
</g>
<!-- CommentComponent&#45;&gt;AppModule -->
<g id="edge2" class="edge">
<title>CommentComponent&#45;&gt;AppModule</title>
<path fill="none" stroke="black" d="M1830,-84.91C1830,-104.14 1830,-131.8 1830,-131.8 1830,-131.8 1277.99,-131.8 1277.99,-131.8"/>
<polygon fill="black" stroke="black" points="1277.99,-128.3 1267.99,-131.8 1277.99,-135.3 1277.99,-128.3"/>
</g>
<!-- DeletedComponent -->
<g id="node3" class="node">
<title>DeletedComponent</title>
<polygon fill="#ffffb3" stroke="black" points="1743.36,-84.8 1618.64,-84.8 1618.64,-48.8 1743.36,-48.8 1743.36,-84.8"/>
<text text-anchor="middle" x="1681" y="-62.6" font-family="Times,serif" font-size="14.00">DeletedComponent</text>
</g>
<!-- DeletedComponent&#45;&gt;AppModule -->
<g id="edge3" class="edge">
<title>DeletedComponent&#45;&gt;AppModule</title>
<path fill="none" stroke="black" d="M1681,-85.1C1681,-103.07 1681,-127.8 1681,-127.8 1681,-127.8 1277.99,-127.8 1277.99,-127.8"/>
<polygon fill="black" stroke="black" points="1277.99,-124.3 1267.99,-127.8 1277.99,-131.3 1277.99,-124.3"/>
</g>
<!-- FavoritesComponent -->
<g id="node4" class="node">
<title>FavoritesComponent</title>
<polygon fill="#ffffb3" stroke="black" points="1600.94,-84.8 1467.06,-84.8 1467.06,-48.8 1600.94,-48.8 1600.94,-84.8"/>
<text text-anchor="middle" x="1534" y="-62.6" font-family="Times,serif" font-size="14.00">FavoritesComponent</text>
</g>
<!-- FavoritesComponent&#45;&gt;AppModule -->
<g id="edge4" class="edge">
<title>FavoritesComponent&#45;&gt;AppModule</title>
<path fill="none" stroke="black" d="M1534,-84.83C1534,-101.2 1534,-122.8 1534,-122.8 1534,-122.8 1277.86,-122.8 1277.86,-122.8"/>
<polygon fill="black" stroke="black" points="1277.86,-119.3 1267.86,-122.8 1277.86,-126.3 1277.86,-119.3"/>
</g>
<!-- FooterComponent -->
<g id="node5" class="node">
<title>FooterComponent</title>
<polygon fill="#ffffb3" stroke="black" points="1448.88,-84.8 1331.12,-84.8 1331.12,-48.8 1448.88,-48.8 1448.88,-84.8"/>
<text text-anchor="middle" x="1390" y="-62.6" font-family="Times,serif" font-size="14.00">FooterComponent</text>
</g>
<!-- FooterComponent&#45;&gt;AppModule -->
<g id="edge5" class="edge">
<title>FooterComponent&#45;&gt;AppModule</title>
<path fill="none" stroke="black" d="M1390,-84.99C1390,-99.98 1390,-118.8 1390,-118.8 1390,-118.8 1277.81,-118.8 1277.81,-118.8"/>
<polygon fill="black" stroke="black" points="1277.81,-115.3 1267.81,-118.8 1277.81,-122.3 1277.81,-115.3"/>
</g>
<!-- GetTodosByhttpComponent -->
<g id="node6" class="node">
<title>GetTodosByhttpComponent</title>
<polygon fill="#ffffb3" stroke="black" points="1313.16,-84.8 1138.84,-84.8 1138.84,-48.8 1313.16,-48.8 1313.16,-84.8"/>
<text text-anchor="middle" x="1226" y="-62.6" font-family="Times,serif" font-size="14.00">GetTodosByhttpComponent</text>
</g>
<!-- GetTodosByhttpComponent&#45;&gt;AppModule -->
<g id="edge6" class="edge">
<title>GetTodosByhttpComponent&#45;&gt;AppModule</title>
<path fill="none" stroke="black" d="M1226,-84.91C1226,-84.91 1226,-103.79 1226,-103.79"/>
<polygon fill="black" stroke="black" points="1222.5,-103.79 1226,-113.79 1229.5,-103.79 1222.5,-103.79"/>
</g>
<!-- ItemTodoComponent -->
<g id="node7" class="node">
<title>ItemTodoComponent</title>
<polygon fill="#ffffb3" stroke="black" points="1120.04,-84.8 983.96,-84.8 983.96,-48.8 1120.04,-48.8 1120.04,-84.8"/>
<text text-anchor="middle" x="1052" y="-62.6" font-family="Times,serif" font-size="14.00">ItemTodoComponent</text>
</g>
<!-- ItemTodoComponent&#45;&gt;AppModule -->
<g id="edge7" class="edge">
<title>ItemTodoComponent&#45;&gt;AppModule</title>
<path fill="none" stroke="black" d="M1052,-84.99C1052,-99.98 1052,-118.8 1052,-118.8 1052,-118.8 1174.32,-118.8 1174.32,-118.8"/>
<polygon fill="black" stroke="black" points="1174.32,-122.3 1184.32,-118.8 1174.32,-115.3 1174.32,-122.3"/>
</g>
<!-- LoginComponent -->
<g id="node8" class="node">
<title>LoginComponent</title>
<polygon fill="#ffffb3" stroke="black" points="965.27,-84.8 850.73,-84.8 850.73,-48.8 965.27,-48.8 965.27,-84.8"/>
<text text-anchor="middle" x="908" y="-62.6" font-family="Times,serif" font-size="14.00">LoginComponent</text>
</g>
<!-- LoginComponent&#45;&gt;AppModule -->
<g id="edge8" class="edge">
<title>LoginComponent&#45;&gt;AppModule</title>
<path fill="none" stroke="black" d="M908,-84.83C908,-101.2 908,-122.8 908,-122.8 908,-122.8 1174.1,-122.8 1174.1,-122.8"/>
<polygon fill="black" stroke="black" points="1174.1,-126.3 1184.1,-122.8 1174.1,-119.3 1174.1,-126.3"/>
</g>
<!-- NavbarComponent -->
<g id="node9" class="node">
<title>NavbarComponent</title>
<polygon fill="#ffffb3" stroke="black" points="832.03,-84.8 709.97,-84.8 709.97,-48.8 832.03,-48.8 832.03,-84.8"/>
<text text-anchor="middle" x="771" y="-62.6" font-family="Times,serif" font-size="14.00">NavbarComponent</text>
</g>
<!-- NavbarComponent&#45;&gt;AppModule -->
<g id="edge9" class="edge">
<title>NavbarComponent&#45;&gt;AppModule</title>
<path fill="none" stroke="black" d="M771,-85.1C771,-103.07 771,-127.8 771,-127.8 771,-127.8 1174.01,-127.8 1174.01,-127.8"/>
<polygon fill="black" stroke="black" points="1174.01,-131.3 1184.01,-127.8 1174.01,-124.3 1174.01,-131.3"/>
</g>
<!-- NotFoundComponent -->
<g id="node10" class="node">
<title>NotFoundComponent</title>
<polygon fill="#ffffb3" stroke="black" points="692.12,-84.8 553.88,-84.8 553.88,-48.8 692.12,-48.8 692.12,-84.8"/>
<text text-anchor="middle" x="623" y="-62.6" font-family="Times,serif" font-size="14.00">NotFoundComponent</text>
</g>
<!-- NotFoundComponent&#45;&gt;AppModule -->
<g id="edge10" class="edge">
<title>NotFoundComponent&#45;&gt;AppModule</title>
<path fill="none" stroke="black" d="M623,-84.91C623,-104.14 623,-131.8 623,-131.8 623,-131.8 1174.08,-131.8 1174.08,-131.8"/>
<polygon fill="black" stroke="black" points="1174.08,-135.3 1184.08,-131.8 1174.08,-128.3 1174.08,-135.3"/>
</g>
<!-- RegisterComponent -->
<g id="node11" class="node">
<title>RegisterComponent</title>
<polygon fill="#ffffb3" stroke="black" points="535.99,-84.8 408.01,-84.8 408.01,-48.8 535.99,-48.8 535.99,-84.8"/>
<text text-anchor="middle" x="472" y="-62.6" font-family="Times,serif" font-size="14.00">RegisterComponent</text>
</g>
<!-- RegisterComponent&#45;&gt;AppModule -->
<g id="edge11" class="edge">
<title>RegisterComponent&#45;&gt;AppModule</title>
<path fill="none" stroke="black" d="M472,-84.83C472,-105.57 472,-136.8 472,-136.8 472,-136.8 1174.12,-136.8 1174.12,-136.8"/>
<polygon fill="black" stroke="black" points="1174.12,-140.3 1184.12,-136.8 1174.12,-133.3 1174.12,-140.3"/>
</g>
<!-- TodoDetailsComponentComponent -->
<g id="node12" class="node">
<title>TodoDetailsComponentComponent</title>
<polygon fill="#ffffb3" stroke="black" points="389.87,-84.8 174.13,-84.8 174.13,-48.8 389.87,-48.8 389.87,-84.8"/>
<text text-anchor="middle" x="282" y="-62.6" font-family="Times,serif" font-size="14.00">TodoDetailsComponentComponent</text>
</g>
<!-- TodoDetailsComponentComponent&#45;&gt;AppModule -->
<g id="edge12" class="edge">
<title>TodoDetailsComponentComponent&#45;&gt;AppModule</title>
<path fill="none" stroke="black" d="M282,-85.09C282,-107.01 282,-140.8 282,-140.8 282,-140.8 1174.22,-140.8 1174.22,-140.8"/>
<polygon fill="black" stroke="black" points="1174.22,-144.3 1184.22,-140.8 1174.22,-137.3 1174.22,-144.3"/>
</g>
<!-- TodoListComponent -->
<g id="node13" class="node">
<title>TodoListComponent</title>
<polygon fill="#ffffb3" stroke="black" points="156.16,-84.8 23.84,-84.8 23.84,-48.8 156.16,-48.8 156.16,-84.8"/>
<text text-anchor="middle" x="90" y="-62.6" font-family="Times,serif" font-size="14.00">TodoListComponent</text>
</g>
<!-- TodoListComponent&#45;&gt;AppModule -->
<g id="edge13" class="edge">
<title>TodoListComponent&#45;&gt;AppModule</title>
<path fill="none" stroke="black" d="M90,-85.12C90,-108.46 90,-145.8 90,-145.8 90,-145.8 1174.22,-145.8 1174.22,-145.8"/>
<polygon fill="black" stroke="black" points="1174.22,-149.3 1184.22,-145.8 1174.22,-142.3 1174.22,-149.3"/>
</g>
<!-- AppComponent  -->
<g id="node16" class="node">
<title>AppComponent </title>
<polygon fill="#80b1d3" stroke="black" points="1280.44,-214.8 1171.56,-214.8 1171.56,-178.8 1280.44,-178.8 1280.44,-214.8"/>
<text text-anchor="middle" x="1226" y="-192.6" font-family="Times,serif" font-size="14.00">AppComponent </text>
</g>
<!-- AppModule&#45;&gt;AppComponent  -->
<g id="edge15" class="edge">
<title>AppModule&#45;&gt;AppComponent </title>
<path fill="none" stroke="black" stroke-dasharray="1,5" d="M1226,-149.91C1226,-149.91 1226,-168.79 1226,-168.79"/>
<polygon fill="black" stroke="black" points="1222.5,-168.79 1226,-178.79 1229.5,-168.79 1222.5,-168.79"/>
</g>
<!-- AppRoutingModule -->
<g id="node15" class="node">
<title>AppRoutingModule</title>
<polygon fill="#8dd3c7" stroke="black" points="2174.28,-84.8 2171.28,-88.8 2150.28,-88.8 2147.28,-84.8 2045.72,-84.8 2045.72,-48.8 2174.28,-48.8 2174.28,-84.8"/>
<text text-anchor="middle" x="2110" y="-62.6" font-family="Times,serif" font-size="14.00">AppRoutingModule</text>
</g>
<!-- AppRoutingModule&#45;&gt;AppModule -->
<g id="edge14" class="edge">
<title>AppRoutingModule&#45;&gt;AppModule</title>
<path fill="none" stroke="black" d="M2110,-85.09C2110,-107.01 2110,-140.8 2110,-140.8 2110,-140.8 1277.75,-140.8 1277.75,-140.8"/>
<polygon fill="black" stroke="black" points="1277.75,-137.3 1267.75,-140.8 1277.75,-144.3 1277.75,-137.3"/>
</g>
<!-- CommntIntInterceptor -->
<g id="node17" class="node">
<title>CommntIntInterceptor</title>
<ellipse fill="#fdb462" stroke="black" cx="2296" cy="-66.8" rx="97.85" ry="18"/>
<text text-anchor="middle" x="2296" y="-62.6" font-family="Times,serif" font-size="14.00">CommntIntInterceptor</text>
</g>
<!-- CommntIntInterceptor&#45;&gt;AppModule -->
<g id="edge16" class="edge">
<title>CommntIntInterceptor&#45;&gt;AppModule</title>
<path fill="none" stroke="black" d="M2296,-85.12C2296,-108.46 2296,-145.8 2296,-145.8 2296,-145.8 1277.95,-145.8 1277.95,-145.8"/>
<polygon fill="black" stroke="black" points="1277.95,-142.3 1267.95,-145.8 1277.95,-149.3 1277.95,-142.3"/>
</g>
</g>
</svg>
