<?xml version="1.0" encoding="UTF-8" standalone="no"?>
<!DOCTYPE svg PUBLIC "-//W3C//DTD SVG 1.1//EN"
 "http://www.w3.org/Graphics/SVG/1.1/DTD/svg11.dtd">
<!-- Generated by graphviz version 5.0.0 (20220707.1540)
 -->
<!-- Title: dependencies Pages: 1 -->
<svg width="2426pt" height="247pt"
 viewBox="0.00 0.00 2426.00 246.80" xmlns="http://www.w3.org/2000/svg" xmlns:xlink="http://www.w3.org/1999/xlink">
<g id="graph0" class="graph" transform="scale(1 1) rotate(0) translate(4 242.8)">
<title>dependencies</title>
<polygon fill="white" stroke="transparent" points="-4,4 -4,-242.8 2422,-242.8 2422,4 -4,4"/>
<text text-anchor="middle" x="1209" y="-8.2" font-family="sans-serif" font-size="14.00">dependencies</text>
<g id="clust1" class="cluster">
<title>cluster_AppModule</title>
<polygon fill="none" stroke="black" stroke-dasharray="1,5" points="8,-32.8 8,-230.8 2410,-230.8 2410,-32.8 8,-32.8"/>
</g>
<g id="clust2" class="cluster">
<title>cluster_AppModule_declarations</title>
<polygon fill="none" stroke="black" points="388,-40.8 388,-92.8 2402,-92.8 2402,-40.8 388,-40.8"/>
</g>
<g id="clust16" class="cluster">
<title>cluster_AppModule_imports</title>
<polygon fill="none" stroke="black" points="236,-40.8 236,-92.8 380,-92.8 380,-40.8 236,-40.8"/>
</g>
<g id="clust18" class="cluster">
<title>cluster_AppModule_bootstrap</title>
<polygon fill="none" stroke="black" points="1218,-170.8 1218,-222.8 1342,-222.8 1342,-170.8 1218,-170.8"/>
</g>
<g id="clust19" class="cluster">
<title>cluster_AppModule_providers</title>
<polygon fill="none" stroke="black" points="16,-40.8 16,-92.8 228,-92.8 228,-40.8 16,-40.8"/>
</g>
<!-- AppComponent -->
<g id="node1" class="node">
<title>AppComponent</title>
<polygon fill="#ffffb3" stroke="black" points="2393.94,-84.8 2288.06,-84.8 2288.06,-48.8 2393.94,-48.8 2393.94,-84.8"/>
<text text-anchor="middle" x="2341" y="-62.6" font-family="Times,serif" font-size="14.00">AppComponent</text>
</g>
<!-- AppModule -->
<g id="node14" class="node">
<title>AppModule</title>
<polygon fill="#8dd3c7" stroke="black" points="1321.66,-149.8 1318.66,-153.8 1297.66,-153.8 1294.66,-149.8 1238.34,-149.8 1238.34,-113.8 1321.66,-113.8 1321.66,-149.8"/>
<text text-anchor="middle" x="1280" y="-127.6" font-family="Times,serif" font-size="14.00">AppModule</text>
</g>
<!-- AppComponent&#45;&gt;AppModule -->
<g id="edge1" class="edge">
<title>AppComponent&#45;&gt;AppModule</title>
<path fill="none" stroke="black" d="M2341,-85.12C2341,-108.46 2341,-145.8 2341,-145.8 2341,-145.8 1331.92,-145.8 1331.92,-145.8"/>
<polygon fill="black" stroke="black" points="1331.92,-142.3 1321.92,-145.8 1331.92,-149.3 1331.92,-142.3"/>
</g>
<!-- CommentComponent -->
<g id="node2" class="node">
<title>CommentComponent</title>
<polygon fill="#ffffb3" stroke="black" points="2270.05,-84.8 2133.95,-84.8 2133.95,-48.8 2270.05,-48.8 2270.05,-84.8"/>
<text text-anchor="middle" x="2202" y="-62.6" font-family="Times,serif" font-size="14.00">CommentComponent</text>
</g>
<!-- CommentComponent&#45;&gt;AppModule -->
<g id="edge2" class="edge">
<title>CommentComponent&#45;&gt;AppModule</title>
<path fill="none" stroke="black" d="M2202,-85.09C2202,-107.01 2202,-140.8 2202,-140.8 2202,-140.8 1331.71,-140.8 1331.71,-140.8"/>
<polygon fill="black" stroke="black" points="1331.71,-137.3 1321.71,-140.8 1331.71,-144.3 1331.71,-137.3"/>
</g>
<!-- DeletedComponent -->
<g id="node3" class="node">
<title>DeletedComponent</title>
<polygon fill="#ffffb3" stroke="black" points="2115.36,-84.8 1990.64,-84.8 1990.64,-48.8 2115.36,-48.8 2115.36,-84.8"/>
<text text-anchor="middle" x="2053" y="-62.6" font-family="Times,serif" font-size="14.00">DeletedComponent</text>
</g>
<!-- DeletedComponent&#45;&gt;AppModule -->
<g id="edge3" class="edge">
<title>DeletedComponent&#45;&gt;AppModule</title>
<path fill="none" stroke="black" d="M2053,-84.83C2053,-105.57 2053,-136.8 2053,-136.8 2053,-136.8 1331.83,-136.8 1331.83,-136.8"/>
<polygon fill="black" stroke="black" points="1331.83,-133.3 1321.83,-136.8 1331.83,-140.3 1331.83,-133.3"/>
</g>
<!-- FavoritesComponent -->
<g id="node4" class="node">
<title>FavoritesComponent</title>
<polygon fill="#ffffb3" stroke="black" points="1972.94,-84.8 1839.06,-84.8 1839.06,-48.8 1972.94,-48.8 1972.94,-84.8"/>
<text text-anchor="middle" x="1906" y="-62.6" font-family="Times,serif" font-size="14.00">FavoritesComponent</text>
</g>
<!-- FavoritesComponent&#45;&gt;AppModule -->
<g id="edge4" class="edge">
<title>FavoritesComponent&#45;&gt;AppModule</title>
<path fill="none" stroke="black" d="M1906,-84.91C1906,-104.14 1906,-131.8 1906,-131.8 1906,-131.8 1332.05,-131.8 1332.05,-131.8"/>
<polygon fill="black" stroke="black" points="1332.05,-128.3 1322.05,-131.8 1332.05,-135.3 1332.05,-128.3"/>
</g>
<!-- FooterComponent -->
<g id="node5" class="node">
<title>FooterComponent</title>
<polygon fill="#ffffb3" stroke="black" points="1820.88,-84.8 1703.12,-84.8 1703.12,-48.8 1820.88,-48.8 1820.88,-84.8"/>
<text text-anchor="middle" x="1762" y="-62.6" font-family="Times,serif" font-size="14.00">FooterComponent</text>
</g>
<!-- FooterComponent&#45;&gt;AppModule -->
<g id="edge5" class="edge">
<title>FooterComponent&#45;&gt;AppModule</title>
<path fill="none" stroke="black" d="M1762,-85.1C1762,-103.07 1762,-127.8 1762,-127.8 1762,-127.8 1331.93,-127.8 1331.93,-127.8"/>
<polygon fill="black" stroke="black" points="1331.93,-124.3 1321.93,-127.8 1331.93,-131.3 1331.93,-124.3"/>
</g>
<!-- GetTodosByhttpComponent -->
<g id="node6" class="node">
<title>GetTodosByhttpComponent</title>
<polygon fill="#ffffb3" stroke="black" points="1685.16,-84.8 1510.84,-84.8 1510.84,-48.8 1685.16,-48.8 1685.16,-84.8"/>
<text text-anchor="middle" x="1598" y="-62.6" font-family="Times,serif" font-size="14.00">GetTodosByhttpComponent</text>
</g>
<!-- GetTodosByhttpComponent&#45;&gt;AppModule -->
<g id="edge6" class="edge">
<title>GetTodosByhttpComponent&#45;&gt;AppModule</title>
<path fill="none" stroke="black" d="M1598,-84.83C1598,-101.2 1598,-122.8 1598,-122.8 1598,-122.8 1331.9,-122.8 1331.9,-122.8"/>
<polygon fill="black" stroke="black" points="1331.9,-119.3 1321.9,-122.8 1331.9,-126.3 1331.9,-119.3"/>
</g>
<!-- ItemTodoComponent -->
<g id="node7" class="node">
<title>ItemTodoComponent</title>
<polygon fill="#ffffb3" stroke="black" points="1492.04,-84.8 1355.96,-84.8 1355.96,-48.8 1492.04,-48.8 1492.04,-84.8"/>
<text text-anchor="middle" x="1424" y="-62.6" font-family="Times,serif" font-size="14.00">ItemTodoComponent</text>
</g>
<!-- ItemTodoComponent&#45;&gt;AppModule -->
<g id="edge7" class="edge">
<title>ItemTodoComponent&#45;&gt;AppModule</title>
<path fill="none" stroke="black" d="M1424,-84.99C1424,-99.98 1424,-118.8 1424,-118.8 1424,-118.8 1332.04,-118.8 1332.04,-118.8"/>
<polygon fill="black" stroke="black" points="1332.04,-115.3 1322.04,-118.8 1332.04,-122.3 1332.04,-115.3"/>
</g>
<!-- LoginComponent -->
<g id="node8" class="node">
<title>LoginComponent</title>
<polygon fill="#ffffb3" stroke="black" points="1337.27,-84.8 1222.73,-84.8 1222.73,-48.8 1337.27,-48.8 1337.27,-84.8"/>
<text text-anchor="middle" x="1280" y="-62.6" font-family="Times,serif" font-size="14.00">LoginComponent</text>
</g>
<!-- LoginComponent&#45;&gt;AppModule -->
<g id="edge8" class="edge">
<title>LoginComponent&#45;&gt;AppModule</title>
<path fill="none" stroke="black" d="M1280,-84.91C1280,-84.91 1280,-103.79 1280,-103.79"/>
<polygon fill="black" stroke="black" points="1276.5,-103.79 1280,-113.79 1283.5,-103.79 1276.5,-103.79"/>
</g>
<!-- NavbarComponent -->
<g id="node9" class="node">
<title>NavbarComponent</title>
<polygon fill="#ffffb3" stroke="black" points="1204.03,-84.8 1081.97,-84.8 1081.97,-48.8 1204.03,-48.8 1204.03,-84.8"/>
<text text-anchor="middle" x="1143" y="-62.6" font-family="Times,serif" font-size="14.00">NavbarComponent</text>
</g>
<!-- NavbarComponent&#45;&gt;AppModule -->
<g id="edge9" class="edge">
<title>NavbarComponent&#45;&gt;AppModule</title>
<path fill="none" stroke="black" d="M1143,-84.99C1143,-99.98 1143,-118.8 1143,-118.8 1143,-118.8 1228.15,-118.8 1228.15,-118.8"/>
<polygon fill="black" stroke="black" points="1228.15,-122.3 1238.15,-118.8 1228.15,-115.3 1228.15,-122.3"/>
</g>
<!-- NotFoundComponent -->
<g id="node10" class="node">
<title>NotFoundComponent</title>
<polygon fill="#ffffb3" stroke="black" points="1064.12,-84.8 925.88,-84.8 925.88,-48.8 1064.12,-48.8 1064.12,-84.8"/>
<text text-anchor="middle" x="995" y="-62.6" font-family="Times,serif" font-size="14.00">NotFoundComponent</text>
</g>
<!-- NotFoundComponent&#45;&gt;AppModule -->
<g id="edge10" class="edge">
<title>NotFoundComponent&#45;&gt;AppModule</title>
<path fill="none" stroke="black" d="M995,-84.83C995,-101.2 995,-122.8 995,-122.8 995,-122.8 1228.25,-122.8 1228.25,-122.8"/>
<polygon fill="black" stroke="black" points="1228.25,-126.3 1238.25,-122.8 1228.25,-119.3 1228.25,-126.3"/>
</g>
<!-- RegisterComponent -->
<g id="node11" class="node">
<title>RegisterComponent</title>
<polygon fill="#ffffb3" stroke="black" points="907.99,-84.8 780.01,-84.8 780.01,-48.8 907.99,-48.8 907.99,-84.8"/>
<text text-anchor="middle" x="844" y="-62.6" font-family="Times,serif" font-size="14.00">RegisterComponent</text>
</g>
<!-- RegisterComponent&#45;&gt;AppModule -->
<g id="edge11" class="edge">
<title>RegisterComponent&#45;&gt;AppModule</title>
<path fill="none" stroke="black" d="M844,-85.1C844,-103.07 844,-127.8 844,-127.8 844,-127.8 1228.19,-127.8 1228.19,-127.8"/>
<polygon fill="black" stroke="black" points="1228.19,-131.3 1238.19,-127.8 1228.19,-124.3 1228.19,-131.3"/>
</g>
<!-- TodoDetailsComponentComponent -->
<g id="node12" class="node">
<title>TodoDetailsComponentComponent</title>
<polygon fill="#ffffb3" stroke="black" points="761.87,-84.8 546.13,-84.8 546.13,-48.8 761.87,-48.8 761.87,-84.8"/>
<text text-anchor="middle" x="654" y="-62.6" font-family="Times,serif" font-size="14.00">TodoDetailsComponentComponent</text>
</g>
<!-- TodoDetailsComponentComponent&#45;&gt;AppModule -->
<g id="edge12" class="edge">
<title>TodoDetailsComponentComponent&#45;&gt;AppModule</title>
<path fill="none" stroke="black" d="M654,-84.91C654,-104.14 654,-131.8 654,-131.8 654,-131.8 1227.95,-131.8 1227.95,-131.8"/>
<polygon fill="black" stroke="black" points="1227.95,-135.3 1237.95,-131.8 1227.95,-128.3 1227.95,-135.3"/>
</g>
<!-- TodoListComponent -->
<g id="node13" class="node">
<title>TodoListComponent</title>
<polygon fill="#ffffb3" stroke="black" points="528.16,-84.8 395.84,-84.8 395.84,-48.8 528.16,-48.8 528.16,-84.8"/>
<text text-anchor="middle" x="462" y="-62.6" font-family="Times,serif" font-size="14.00">TodoListComponent</text>
</g>
<!-- TodoListComponent&#45;&gt;AppModule -->
<g id="edge13" class="edge">
<title>TodoListComponent&#45;&gt;AppModule</title>
<path fill="none" stroke="black" d="M462,-84.83C462,-105.57 462,-136.8 462,-136.8 462,-136.8 1228.31,-136.8 1228.31,-136.8"/>
<polygon fill="black" stroke="black" points="1228.31,-140.3 1238.31,-136.8 1228.31,-133.3 1228.31,-140.3"/>
</g>
<!-- AppComponent  -->
<g id="node16" class="node">
<title>AppComponent </title>
<polygon fill="#80b1d3" stroke="black" points="1334.44,-214.8 1225.56,-214.8 1225.56,-178.8 1334.44,-178.8 1334.44,-214.8"/>
<text text-anchor="middle" x="1280" y="-192.6" font-family="Times,serif" font-size="14.00">AppComponent </text>
</g>
<!-- AppModule&#45;&gt;AppComponent  -->
<g id="edge15" class="edge">
<title>AppModule&#45;&gt;AppComponent </title>
<path fill="none" stroke="black" stroke-dasharray="1,5" d="M1280,-149.91C1280,-149.91 1280,-168.79 1280,-168.79"/>
<polygon fill="black" stroke="black" points="1276.5,-168.79 1280,-178.79 1283.5,-168.79 1276.5,-168.79"/>
</g>
<!-- AppRoutingModule -->
<g id="node15" class="node">
<title>AppRoutingModule</title>
<polygon fill="#8dd3c7" stroke="black" points="372.28,-84.8 369.28,-88.8 348.28,-88.8 345.28,-84.8 243.72,-84.8 243.72,-48.8 372.28,-48.8 372.28,-84.8"/>
<text text-anchor="middle" x="308" y="-62.6" font-family="Times,serif" font-size="14.00">AppRoutingModule</text>
</g>
<!-- AppRoutingModule&#45;&gt;AppModule -->
<g id="edge14" class="edge">
<title>AppRoutingModule&#45;&gt;AppModule</title>
<path fill="none" stroke="black" d="M308,-85.09C308,-107.01 308,-140.8 308,-140.8 308,-140.8 1228.23,-140.8 1228.23,-140.8"/>
<polygon fill="black" stroke="black" points="1228.23,-144.3 1238.23,-140.8 1228.23,-137.3 1228.23,-144.3"/>
</g>
<!-- CommntIntInterceptor -->
<g id="node17" class="node">
<title>CommntIntInterceptor</title>
<ellipse fill="#fdb462" stroke="black" cx="122" cy="-66.8" rx="97.85" ry="18"/>
<text text-anchor="middle" x="122" y="-62.6" font-family="Times,serif" font-size="14.00">CommntIntInterceptor</text>
</g>
<!-- CommntIntInterceptor&#45;&gt;AppModule -->
<g id="edge16" class="edge">
<title>CommntIntInterceptor&#45;&gt;AppModule</title>
<path fill="none" stroke="black" d="M122,-85.12C122,-108.46 122,-145.8 122,-145.8 122,-145.8 1228.1,-145.8 1228.1,-145.8"/>
<polygon fill="black" stroke="black" points="1228.1,-149.3 1238.1,-145.8 1228.1,-142.3 1228.1,-149.3"/>
</g>
</g>
</svg>
